<?xml version="1.0" encoding="UTF-8"?>
<svg version="1.1" xmlns="http://www.w3.org/2000/svg" width="1200" height="867">
<path d="M0 0 C396 0 792 0 1200 0 C1200 286.11 1200 572.22 1200 867 C804 867 408 867 0 867 C0 580.89 0 294.78 0 0 Z " fill="#FEFEFE" transform="translate(0,0)"/>
<path d="M0 0 C2.13608189 0.46525302 4.27539051 0.88160235 6.42431641 1.28271484 C44.57253981 8.6567271 83.73860089 25.98265019 115.24853516 48.48974609 C116.09416016 49.06724609 116.93978516 49.64474609 117.81103516 50.23974609 C128.91921641 57.84008064 139.81992466 65.80126943 149.62353516 75.04052734 C151.73639118 77.01189747 153.87879945 78.91051379 156.06494141 80.79833984 C160.26428648 84.45861307 164.25017512 88.2990874 168.18603516 92.23974609 C168.8855127 92.9400293 169.58499023 93.6403125 170.30566406 94.36181641 C174.8976665 99.00819361 179.1644337 103.74198398 183.19775391 108.88427734 C185.36599733 111.63897898 187.64528085 114.27381986 189.93603516 116.92724609 C228.98884644 163.99552636 252.6600198 224.22006895 258.95483398 284.80688477 C259.18549495 286.91389499 259.46704987 289.01534062 259.76757812 291.11352539 C260.41330505 296.26553147 260.44757407 301.40458811 260.48681641 306.59130859 C260.49656494 307.6534256 260.50631348 308.7155426 260.51635742 309.80984497 C260.68321403 332.71070636 260.56021673 354.92935232 256.24853516 377.48974609 C256.05598145 378.55418945 255.86342773 379.61863281 255.66503906 380.71533203 C253.13212765 394.60084975 249.66068165 408.08731567 245.24853516 421.48974609 C244.97783203 422.31958008 244.70712891 423.14941406 244.42822266 424.00439453 C238.54953884 441.86707749 230.96402337 458.84026769 222.24853516 475.48974609 C221.69625244 476.54863037 221.69625244 476.54863037 221.1328125 477.62890625 C209.41812276 499.89326157 194.59855078 520.82387723 177.39306641 539.19677734 C175.53063706 541.18811802 173.75752661 543.22026365 171.99853516 545.30224609 C164.06981378 554.39035597 155.39816716 562.89858695 145.92822266 570.36474609 C143.13165327 572.58243377 140.44874862 574.9060436 137.74853516 577.23974609 C129.69608322 583.95707646 120.99402941 589.72116819 112.24853516 595.48974609 C111.57306641 595.93850098 110.89759766 596.38725586 110.20166016 596.84960938 C88.97047006 610.86888352 65.70764737 622.08052262 41.64697266 630.32177734 C39.69088902 630.99404057 37.73949234 631.68116449 35.8034668 632.40917969 C29.26131547 634.86226835 22.7206884 636.82860181 15.93603516 638.48974609 C14.89479492 638.7453833 13.85355469 639.00102051 12.78076172 639.2644043 C2.33457794 641.77943143 -8.12581695 643.89269412 -18.75146484 645.48974609 C-19.74404297 645.64072754 -20.73662109 645.79170898 -21.75927734 645.94726562 C-52.20433904 650.3680946 -84.38892145 650.49690237 -114.75146484 645.48974609 C-115.85973633 645.31282227 -116.96800781 645.13589844 -118.10986328 644.95361328 C-133.32455053 642.47978461 -148.05759584 639.12849416 -162.75146484 634.48974609 C-164.15960449 634.05903809 -164.15960449 634.05903809 -165.59619141 633.61962891 C-181.27002573 628.81090693 -196.04946398 622.73356002 -210.75146484 615.48974609 C-211.67088867 615.03696289 -212.5903125 614.58417969 -213.53759766 614.11767578 C-239.08465884 601.4037275 -262.58229888 585.62540575 -283.75146484 566.48974609 C-284.8100539 565.54312626 -285.86864748 564.59651149 -286.92724609 563.64990234 C-296.73018431 554.82427261 -306.31068319 545.64202265 -314.75146484 535.48974609 C-315.43466797 534.67248047 -316.11787109 533.85521484 -316.82177734 533.01318359 C-334.54992139 511.57880734 -349.7413538 488.8295593 -361.71386719 463.6640625 C-362.43538792 462.15209459 -363.16553039 460.6442232 -363.90234375 459.13964844 C-379.68409122 426.83251094 -387.48604076 392.86192668 -392.75146484 357.48974609 C-393.02410156 355.66672974 -393.02410156 355.66672974 -393.30224609 353.80688477 C-393.94731541 348.4979912 -393.93231705 343.18683199 -393.95458984 337.84521484 C-393.96160416 336.73041245 -393.96861847 335.61561005 -393.97584534 334.46702576 C-393.99333166 330.87039145 -393.99970121 327.2739214 -394.00146484 323.67724609 C-394.00213959 322.45422791 -394.00281433 321.23120972 -394.00350952 319.97113037 C-393.98826422 302.63907903 -393.80265238 285.60021047 -390.75146484 268.48974609 C-390.5798584 267.50167969 -390.40825195 266.51361328 -390.23144531 265.49560547 C-382.01419402 219.58474301 -364.70559309 174.69719596 -337.75146484 136.48974609 C-336.90882171 135.27633997 -336.06637581 134.06279686 -335.22412109 132.84912109 C-330.05176334 125.45093733 -324.57791229 118.38948649 -318.75146484 111.48974609 C-317.89669328 110.44857574 -317.04255242 109.40688734 -316.18896484 108.36474609 C-304.40946298 94.13945591 -291.33781036 80.83216096 -276.75146484 69.48974609 C-274.87376936 67.88873536 -272.99892439 66.28437737 -271.12646484 64.67724609 C-226.97186261 27.91967774 -171.22445749 5.11493005 -114.75146484 -3.51025391 C-113.83864746 -3.65978516 -112.92583008 -3.80931641 -111.98535156 -3.96337891 C-75.28936081 -9.8357499 -36.18444479 -8.09398859 0 0 Z " fill="#000000" transform="translate(666.75146484375,112.51025390625)"/>
<path d="M0 0 C45.68745909 -0.27395236 91.37499551 -0.5286746 137.06304932 -0.67749023 C138.07768993 -0.6808036 138.07768993 -0.6808036 139.11282833 -0.68418391 C153.81417141 -0.73207283 168.51552322 -0.7763954 183.21688806 -0.81704527 C190.42665777 -0.83700228 197.63642512 -0.85774719 204.84619141 -0.87890625 C205.56364163 -0.88099839 206.28109186 -0.88309054 207.020283 -0.88524608 C230.26610949 -0.95340204 253.51131282 -1.07356251 276.75676193 -1.22075553 C300.64882793 -1.37176787 324.54054923 -1.47018768 348.43308441 -1.50263984 C351.80936641 -1.50725017 355.18564725 -1.51246036 358.5619278 -1.51803589 C359.2264141 -1.51911466 359.89090041 -1.52019342 360.57552266 -1.52130488 C371.92222946 -1.54136247 383.26765119 -1.62647914 394.61390945 -1.72666347 C404.70468951 -1.81122489 414.79454438 -1.83680576 424.88565305 -1.81602204 C430.70898301 -1.80576984 436.52918692 -1.82150202 442.35196114 -1.9072876 C447.68716605 -1.9853152 453.01715326 -1.98900469 458.35260144 -1.93438232 C460.27888336 -1.92763574 462.2054943 -1.94782409 464.13113102 -1.99813092 C478.13023068 -2.34249158 478.13023068 -2.34249158 482.93452388 1.57908368 C486.5019288 5.390004 489.26159987 9.6133724 491.87615135 14.11505616 C493.36459933 16.61151407 495.10192689 18.86880389 496.91015625 21.140625 C497.44447266 21.83800781 497.97878906 22.53539062 498.52929688 23.25390625 C499.03525391 23.91261719 499.54121094 24.57132812 500.0625 25.25 C503.24194039 29.39577805 503.24194039 29.39577805 504.72167969 31.359375 C506.05476485 33.12293675 506.05476485 33.12293675 507.95703125 35.078125 C509.62643818 38.15433552 508.57823311 40.20310351 507.625 43.5 C507.22862431 44.92787469 506.83425791 46.35630798 506.44140625 47.78515625 C506.21340332 48.5961377 505.98540039 49.40711914 505.75048828 50.24267578 C504.57430346 54.56402627 503.52768782 58.91621516 502.46289062 63.26611328 C500.17830966 72.58160366 497.83818377 81.8507102 495.04614258 91.02758789 C492.77109874 98.59514956 490.76757297 106.23577713 488.75 113.875 C488.55846344 114.59990631 488.36692688 115.32481262 488.16958618 116.07168579 C485.35898295 126.72332751 482.61333541 137.39100219 479.8868103 148.06442261 C479.6972879 148.80628815 479.5077655 149.54815369 479.3125 150.3125 C479.1227359 151.0554129 478.9329718 151.79832581 478.73745728 152.56375122 C476.37332491 161.80708491 473.93293449 171.01818608 471.24414062 180.17333984 C469.73498559 185.33728377 468.3219157 190.52171685 466.9609375 195.7265625 C466.78335403 196.40343613 466.60577057 197.08030975 466.42280579 197.7776947 C465.54093282 201.14176596 464.66625839 204.50745617 463.80249023 207.8762207 C463.48223877 209.10171631 463.1619873 210.32721191 462.83203125 211.58984375 C462.55077393 212.68159912 462.2695166 213.77335449 461.97973633 214.89819336 C459.90079033 221.48005455 457.12985475 225.2009251 451.625 229.25 C451.0050415 229.72107178 450.38508301 230.19214355 449.74633789 230.67749023 C448.46251972 231.65213537 447.17513601 232.62210128 445.88427734 233.58740234 C443.5825566 235.31294733 441.3063592 237.06993586 439.03125 238.83032227 C437.4368247 240.0630221 435.83820559 241.2900732 434.23828125 242.515625 C432.00241771 244.22912871 429.77113604 245.94837541 427.54296875 247.671875 C426.97070557 248.11394287 426.39844238 248.55601074 425.80883789 249.01147461 C424.22883542 250.23227106 422.64954867 251.45399367 421.0703125 252.67578125 C420.05710937 253.44277344 419.04390625 254.20976563 418 255 C417.49007238 255.42886338 416.98014476 255.85772676 416.45476478 256.299586 C412.06180037 259.80675307 408.49383867 260.71400436 402.86915588 260.60127258 C402.07913286 260.60554471 401.28910983 260.60981683 400.47514671 260.61421841 C397.84295122 260.6224171 395.2123695 260.59501679 392.58032227 260.56762695 C390.68768857 260.5662158 388.79505215 260.56700977 386.90242004 260.56983948 C381.77465811 260.57127241 376.64748252 260.54190226 371.51985669 260.50696969 C366.1573874 260.47568586 360.79490425 260.47277384 355.43235779 260.46684265 C345.28224522 260.45131021 335.13240234 260.41028968 324.98240846 260.3600952 C313.42506763 260.30418324 301.86771383 260.27671055 290.31027138 260.25161803 C266.54003148 260.19937344 242.77003086 260.11144263 219 260 C218.86518723 260.61243561 218.73037445 261.22487122 218.59147644 261.85586548 C218.41328873 262.66220428 218.23510101 263.46854309 218.05151367 264.29931641 C217.8754509 265.09737701 217.69938812 265.89543762 217.51799011 266.71768188 C216.85802157 269.62557168 216.09734772 272.49840882 215.3125 275.375 C214.07283944 279.95800523 212.85445516 284.54542495 211.67578125 289.14453125 C207.78201035 304.33367681 203.76050066 319.4881608 199.70159912 334.63394165 C199.06989166 336.99292798 198.43954925 339.35228029 197.81060791 341.71200562 C196.91418234 345.07340893 196.01244743 348.43334591 195.109375 351.79296875 C194.84081696 352.80351318 194.57225891 353.81405762 194.29556274 354.85522461 C193.90901016 356.28656738 193.90901016 356.28656738 193.51464844 357.74682617 C193.29371521 358.57139816 193.07278198 359.39597015 192.84515381 360.24552917 C191.72841714 363.88512536 190.33675056 367.43533184 189 371 C138.51 371 88.02 371 36 371 C38.32285555 361.12786391 40.62976262 351.40504202 43.4375 341.6875 C45.62402304 334.00662202 47.72385068 326.31909756 49.625 318.5625 C51.29991941 311.73387856 53.08812061 304.95119408 54.99145508 298.18286133 C56.80822331 291.71666937 58.56846998 285.23617478 60.3125 278.75 C60.60552002 277.66025879 60.89854004 276.57051758 61.20043945 275.44775391 C63.84448861 265.60021545 66.46613297 255.74672142 69.08911133 245.89355469 C71.03585867 238.58912868 73.00237868 231.29066857 75 224 C77.32588932 215.50903592 79.60829841 207.00695179 81.875 198.5 C82.20838379 197.25041504 82.54176758 196.00083008 82.88525391 194.71337891 C84.48749942 188.70208475 86.08379298 182.68937653 87.66281128 176.67193604 C88.38935187 173.90496382 89.11911112 171.13884525 89.84918213 168.37280273 C90.19695904 167.05145233 90.54313638 165.72967979 90.88763428 164.4074707 C91.36643902 162.57008901 91.85106373 160.73422694 92.3359375 158.8984375 C92.60970215 157.85349121 92.8834668 156.80854492 93.16552734 155.73193359 C94 153 94 153 96 149 C171.9 149 247.8 149 326 149 C327.32 143.06 328.64 137.12 330 131 C330.86371118 127.64759001 331.7338844 124.3238563 332.6875 121 C333.00557617 119.85917969 333.00557617 119.85917969 333.33007812 118.6953125 C334.85392219 113.29215561 334.85392219 113.29215561 336 111 C334.22944134 111.01520958 334.22944134 111.01520958 332.42311382 111.03072643 C304.3748627 111.26919638 276.3266621 111.45046144 248.27761419 111.56171862 C244.82187448 111.57547565 241.36613691 111.58971327 237.91040039 111.60424805 C237.22245379 111.60713346 236.5345072 111.61001888 235.82571373 111.61299173 C224.70068625 111.6607977 213.57628691 111.74749409 202.45163151 111.84868076 C191.02827282 111.95171423 179.6054228 112.01185809 168.18158609 112.03497344 C161.76819404 112.04930032 155.3562244 112.08290841 148.9432888 112.16303062 C142.90263731 112.23788768 136.86398921 112.26068975 130.82291794 112.24418449 C128.61016118 112.2472023 126.39733511 112.26897354 124.18498039 112.31126022 C105.72894005 112.64662164 105.72894005 112.64662164 99.73099452 107.18195325 C97.61610945 104.92487286 95.79483525 102.51597737 94 100 C92.7842838 98.59243632 91.55805344 97.19373062 90.3125 95.8125 C89.77109375 95.17957031 89.2296875 94.54664063 88.671875 93.89453125 C85.61621704 90.43192819 82.29544713 87.23231596 79 84 C74.34080579 79.43006238 69.88083983 74.78930554 65.62109375 69.84375 C63.35753739 67.26929553 60.95297773 64.8952606 58.5 62.5 C55.42806785 59.50034861 52.51714887 56.47495145 49.71875 53.21875 C45.70327225 48.58146436 41.37202116 44.29866511 37 40 C32.05221446 35.13523099 27.27293417 30.23269268 22.75097656 24.96923828 C18.98717789 20.73627675 14.85067005 16.85223817 10.78515625 12.91210938 C10.11097656 12.24888672 9.43679688 11.58566406 8.7421875 10.90234375 C8.1426123 10.31960693 7.54303711 9.73687012 6.92529297 9.13647461 C5.2453984 7.27231567 3.82499456 5.41114319 2.37966919 3.36647034 C1.93297945 2.73606118 1.48628971 2.10565203 1.02606392 1.45613956 C0.68746283 0.97561351 0.34886173 0.49508745 0 0 Z " fill="#FEFEFE" transform="translate(355,265)"/>
<path d="M0 0 C1.48525681 -0.00151062 1.48525681 -0.00151062 3.0005188 -0.00305176 C19.28419082 0.00810425 35.19422348 0.75449023 51.3125 3.25 C52.26447266 3.39453613 53.21644531 3.53907227 54.19726562 3.68798828 C60.6100461 4.69123512 66.96240694 5.90909873 73.3125 7.25 C74.2499707 7.44400391 75.18744141 7.63800781 76.15332031 7.83789062 C128.56122239 18.89144881 178.87074394 41.57407089 221.3125 74.25 C221.88291016 74.68747559 222.45332031 75.12495117 223.04101562 75.57568359 C229.85965791 80.81635046 236.51340118 86.14465054 242.8359375 91.984375 C244.85593822 93.83232519 246.90521481 95.62174467 248.98046875 97.40625 C253.93863841 101.73510461 258.59920575 106.34524313 263.25 111 C264.57777466 112.32789551 264.57777466 112.32789551 265.93237305 113.68261719 C271.04452304 118.83971436 275.93978902 124.00017445 280.36328125 129.765625 C282.05373832 131.92019554 283.80574545 133.95135129 285.625 135.99609375 C289.31566124 140.18982697 292.69381554 144.56173142 296 149.0625 C296.90347168 150.29202393 296.90347168 150.29202393 297.82519531 151.54638672 C303.57369654 159.46228134 308.85063333 167.6324515 313.93505859 175.98730469 C314.82539813 177.44984755 315.72119545 178.90908801 316.62353516 180.36425781 C333.24092498 207.16402827 345.60034467 236.99378743 354.3125 267.25 C354.66368896 268.46260498 354.66368896 268.46260498 355.02197266 269.69970703 C358.55489358 282.06618932 361.32979485 294.54292568 363.3125 307.25 C363.49731934 308.41885742 363.68213867 309.58771484 363.87255859 310.79199219 C366.94445267 331.16897626 367.70970891 351.40425255 367.75 372 C367.75608276 373.17503082 367.76216553 374.35006165 367.76843262 375.56069946 C367.82306226 391.67742997 366.73892381 407.31757323 364.3125 423.25 C364.16312988 424.23910873 364.01375977 425.22821747 363.85986328 426.24729919 C357.81804512 465.81833916 344.74499106 503.97032332 326.25390625 539.43652344 C325.33163504 541.21313925 324.43118704 543.00102971 323.53125 544.7890625 C315.12085216 561.28916094 304.88766087 576.81464183 293.3125 591.25 C292.4920719 592.33029071 291.67574742 593.4137086 290.86328125 594.5 C285.84468492 601.19672339 280.5409354 607.4587625 274.81640625 613.5625 C272.83501034 615.68917767 270.93434988 617.84117431 269.0625 620.0625 C260.91645779 629.45115882 251.82131978 638.25554781 242.3125 646.25 C241.34828125 647.10335937 240.3840625 647.95671875 239.390625 648.8359375 C211.67194444 673.28056432 179.83762609 691.95609775 146.3125 707.25 C145.54647461 707.60900391 144.78044922 707.96800781 143.99121094 708.33789062 C88.79924893 734.12207654 19.88703152 743.77472325 -40.35058594 735.56640625 C-42.88954565 735.22264405 -45.43184041 734.92297252 -47.9765625 734.625 C-109.07050496 727.19795714 -169.68879405 703.73401005 -218.6875 666.25 C-220.10336052 665.20723786 -221.51987107 664.16535672 -222.9375 663.125 C-231.56902609 656.60464804 -239.71272827 649.55016868 -247.6875 642.25 C-249.09128906 640.98542969 -249.09128906 640.98542969 -250.5234375 639.6953125 C-260.77720956 630.43367684 -270.82272117 620.86758737 -279.6875 610.25 C-280.4196875 609.39535156 -281.151875 608.54070313 -281.90625 607.66015625 C-301.62222927 584.41900981 -318.61516632 558.79823661 -331.6875 531.25 C-332.46990841 529.61711865 -333.25246733 527.98430941 -334.03515625 526.3515625 C-335.92585791 522.39156119 -337.81586088 518.43146686 -339.6640625 514.45141602 C-340.31504442 513.05115266 -340.97548781 511.6552203 -341.6484375 510.26538086 C-344.88237437 503.37765404 -347.14994916 496.15612483 -349.46923828 488.92358398 C-350.17895565 486.71410017 -350.89943725 484.50834322 -351.62109375 482.30273438 C-354.7336167 472.70694934 -357.36057492 463.06412434 -359.6875 453.25 C-359.89181641 452.41815186 -360.09613281 451.58630371 -360.30664062 450.72924805 C-365.50601899 429.50263533 -368.81348012 407.66865547 -368.890625 385.80859375 C-368.89632507 384.52807632 -368.90202515 383.2475589 -368.90789795 381.92823792 C-368.91834271 379.22111627 -368.92422491 376.51402365 -368.92773438 373.80688477 C-368.93207792 371.08734415 -368.94581988 368.36812817 -368.96875 365.64868164 C-369.1539834 343.22817098 -367.77741045 321.36508877 -363.13525391 299.39257812 C-362.62650533 296.95813021 -362.14846187 294.51830245 -361.66796875 292.078125 C-351.27426263 240.55388495 -328.81554045 190.84940691 -297.00341797 148.98339844 C-295.70223891 147.26941489 -294.41483217 145.54575712 -293.12890625 143.8203125 C-288.45160757 137.59087318 -283.52628082 131.68031199 -278.20703125 125.98046875 C-276.25885308 123.86918729 -274.37837534 121.73295724 -272.5078125 119.5546875 C-268.14148447 114.54651219 -263.45702147 109.87333457 -258.75 105.1875 C-257.89470703 104.32833984 -257.03941406 103.46917969 -256.15820312 102.58398438 C-236.23410313 82.69027966 -213.26779277 65.55732675 -188.89746094 51.52832031 C-186.98378595 50.42138237 -185.08659339 49.2930135 -183.1953125 48.1484375 C-168.84057846 39.61983024 -153.41601642 31.95509713 -137.67504883 26.35131836 C-134.78768847 25.28693309 -131.97778887 24.11264469 -129.15234375 22.89453125 C-88.62090688 5.94400397 -43.60766249 0.03095809 0 0 Z M-48.6875 44.25 C-49.63625 44.39985352 -50.585 44.54970703 -51.5625 44.70410156 C-57.97175728 45.72949564 -64.33566006 46.91506994 -70.6875 48.25 C-71.48188477 48.41693359 -72.27626953 48.58386719 -73.09472656 48.75585938 C-95.43629418 53.60101862 -117.80877588 61.08889473 -138.35302734 71.11132812 C-140.76385366 72.28724257 -143.18779522 73.4327963 -145.61328125 74.578125 C-171.52854088 86.99480031 -196.07616059 103.46352651 -217.2109375 122.984375 C-219.27342874 124.87119664 -221.36538158 126.70440818 -223.48046875 128.53125 C-227.68551751 132.20257349 -231.68095494 136.0511463 -235.625 140 C-236.67421631 141.0504248 -236.67421631 141.0504248 -237.74462891 142.12207031 C-242.33872022 146.77056113 -246.60807062 151.50553093 -250.640625 156.65234375 C-252.02451251 158.4086132 -253.453653 160.13000441 -254.921875 161.81640625 C-267.69744712 176.49161409 -278.3134886 193.2311275 -287.6875 210.25 C-288.13577148 211.06291504 -288.58404297 211.87583008 -289.04589844 212.71337891 C-307.97922241 247.33300753 -320.48151745 285.10946677 -325.6875 324.25 C-325.7803981 324.93957291 -325.8732962 325.62914581 -325.9690094 326.33961487 C-327.85418986 340.77543395 -328.08630199 355.14410688 -328.0625 369.6875 C-328.06228851 370.88143372 -328.06207703 372.07536743 -328.06185913 373.30548096 C-328.03055364 391.01311191 -327.26796451 407.87242567 -323.6875 425.25 C-323.29578727 427.34590894 -322.90649677 429.4422719 -322.51953125 431.5390625 C-320.07381209 444.37533392 -316.76488176 456.84122621 -312.6875 469.25 C-312.28942139 470.47879883 -312.28942139 470.47879883 -311.88330078 471.73242188 C-305.82226025 490.29594352 -297.75822168 507.9730618 -288.6875 525.25 C-288.18597412 526.20737061 -288.18597412 526.20737061 -287.67431641 527.18408203 C-280.18113877 541.33549337 -271.22413913 554.60018687 -261.31811523 567.17260742 C-259.64462052 569.30462816 -258.00773241 571.46166793 -256.375 573.625 C-252.83860976 578.17859911 -248.98614572 582.40498578 -245.078125 586.640625 C-243.1480549 588.74730283 -241.2823729 590.88219567 -239.4375 593.0625 C-231.53376661 602.12196799 -222.89342189 610.59609532 -213.45703125 618.04296875 C-210.8993217 620.08119992 -208.42656549 622.1861713 -205.95727539 624.32885742 C-199.20557296 630.16256083 -192.18368182 635.39634366 -184.6875 640.25 C-183.94532227 640.73194824 -183.20314453 641.21389648 -182.43847656 641.71044922 C-143.62812234 666.72901625 -101.62863844 683.91264495 -56.125 691.9375 C-54.97854004 692.14020508 -53.83208008 692.34291016 -52.65087891 692.55175781 C-35.99368409 695.36197037 -19.50753308 696.66213037 -2.625 696.625 C-1.72451935 696.62478851 -0.8240387 696.62457703 0.10372925 696.62435913 C31.50376451 696.55159803 63.34996198 692.60513652 93.29980469 682.90039062 C95.36389957 682.23339053 97.43510094 681.59279186 99.5078125 680.953125 C125.45743176 672.78841013 150.87199143 661.37406731 173.59863281 646.38037109 C175.19021646 645.33065139 176.79387142 644.29929707 178.3984375 643.26953125 C203.60483523 626.88199385 228.07238941 606.45357337 247.3125 583.25 C247.76173828 582.71455566 248.21097656 582.17911133 248.67382812 581.62744141 C261.18094919 566.68838013 272.30078778 550.96194508 282.3125 534.25 C282.84875 533.36352783 283.385 532.47705566 283.9375 531.5637207 C288.29471841 524.2505913 292.11560526 516.78728998 295.6875 509.0625 C296.10420456 508.16349976 296.10420456 508.16349976 296.52932739 507.24633789 C302.2489784 494.85522262 307.04665543 482.21220376 311.3125 469.25 C311.60205566 468.37972168 311.89161133 467.50944336 312.18994141 466.61279297 C316.64947581 453.05045379 319.77268244 439.29019647 322.3125 425.25 C322.51149902 424.20875977 322.71049805 423.16751953 322.91552734 422.09472656 C329.2011263 388.23177004 329.29180337 350.16577542 323.3125 316.25 C323.05509033 314.7635498 323.05509033 314.7635498 322.79248047 313.24707031 C313.40953045 260.84006617 291.96923207 211.33957242 259.3125 169.25 C258.36310547 168.02603516 258.36310547 168.02603516 257.39453125 166.77734375 C255.3961126 164.24326649 253.36229941 161.7427025 251.3125 159.25 C250.4875 158.23808594 249.6625 157.22617188 248.8125 156.18359375 C237.01391987 141.9399408 223.91944599 128.6084339 209.3125 117.25 C207.43480452 115.64898926 205.55995955 114.04463127 203.6875 112.4375 C157.93261179 74.34773481 99.08739129 50.6664571 40.3125 43.25 C39.64415131 43.16386444 38.97580261 43.07772888 38.28720093 42.98898315 C25.42323605 41.36491275 12.70866685 40.88739154 -0.25 40.9375 C-1.20972717 40.93899048 -2.16945435 40.94048096 -3.15826416 40.9420166 C-18.52858936 40.98477666 -33.4974134 41.74130204 -48.6875 44.25 Z " fill="#FBFBFB" transform="translate(600.6875,64.75)"/>
<path d="M0 0 C1.48525681 -0.00151062 1.48525681 -0.00151062 3.0005188 -0.00305176 C19.28419082 0.00810425 35.19422348 0.75449023 51.3125 3.25 C52.26447266 3.39453613 53.21644531 3.53907227 54.19726562 3.68798828 C60.6100461 4.69123512 66.96240694 5.90909873 73.3125 7.25 C74.2499707 7.44400391 75.18744141 7.63800781 76.15332031 7.83789062 C128.56122239 18.89144881 178.87074394 41.57407089 221.3125 74.25 C221.88291016 74.68747559 222.45332031 75.12495117 223.04101562 75.57568359 C229.85965791 80.81635046 236.51340118 86.14465054 242.8359375 91.984375 C244.85593822 93.83232519 246.90521481 95.62174467 248.98046875 97.40625 C253.93863841 101.73510461 258.59920575 106.34524313 263.25 111 C264.57777466 112.32789551 264.57777466 112.32789551 265.93237305 113.68261719 C271.04452304 118.83971436 275.93978902 124.00017445 280.36328125 129.765625 C282.05373832 131.92019554 283.80574545 133.95135129 285.625 135.99609375 C289.31566124 140.18982697 292.69381554 144.56173142 296 149.0625 C296.90347168 150.29202393 296.90347168 150.29202393 297.82519531 151.54638672 C303.57369654 159.46228134 308.85063333 167.6324515 313.93505859 175.98730469 C314.82539813 177.44984755 315.72119545 178.90908801 316.62353516 180.36425781 C333.24092498 207.16402827 345.60034467 236.99378743 354.3125 267.25 C354.66368896 268.46260498 354.66368896 268.46260498 355.02197266 269.69970703 C358.55489358 282.06618932 361.32979485 294.54292568 363.3125 307.25 C363.49731934 308.41885742 363.68213867 309.58771484 363.87255859 310.79199219 C366.94445267 331.16897626 367.70970891 351.40425255 367.75 372 C367.75608276 373.17503082 367.76216553 374.35006165 367.76843262 375.56069946 C367.82306226 391.67742997 366.73892381 407.31757323 364.3125 423.25 C364.16312988 424.23910873 364.01375977 425.22821747 363.85986328 426.24729919 C357.81804512 465.81833916 344.74499106 503.97032332 326.25390625 539.43652344 C325.33163504 541.21313925 324.43118704 543.00102971 323.53125 544.7890625 C315.12085216 561.28916094 304.88766087 576.81464183 293.3125 591.25 C292.4920719 592.33029071 291.67574742 593.4137086 290.86328125 594.5 C285.84468492 601.19672339 280.5409354 607.4587625 274.81640625 613.5625 C272.83501034 615.68917767 270.93434988 617.84117431 269.0625 620.0625 C260.91645779 629.45115882 251.82131978 638.25554781 242.3125 646.25 C241.34828125 647.10335937 240.3840625 647.95671875 239.390625 648.8359375 C211.67194444 673.28056432 179.83762609 691.95609775 146.3125 707.25 C145.54647461 707.60900391 144.78044922 707.96800781 143.99121094 708.33789062 C88.79924893 734.12207654 19.88703152 743.77472325 -40.35058594 735.56640625 C-42.88954565 735.22264405 -45.43184041 734.92297252 -47.9765625 734.625 C-109.07050496 727.19795714 -169.68879405 703.73401005 -218.6875 666.25 C-220.10336052 665.20723786 -221.51987107 664.16535672 -222.9375 663.125 C-231.56902609 656.60464804 -239.71272827 649.55016868 -247.6875 642.25 C-249.09128906 640.98542969 -249.09128906 640.98542969 -250.5234375 639.6953125 C-260.77720956 630.43367684 -270.82272117 620.86758737 -279.6875 610.25 C-280.4196875 609.39535156 -281.151875 608.54070313 -281.90625 607.66015625 C-301.62222927 584.41900981 -318.61516632 558.79823661 -331.6875 531.25 C-332.46990841 529.61711865 -333.25246733 527.98430941 -334.03515625 526.3515625 C-335.92585791 522.39156119 -337.81586088 518.43146686 -339.6640625 514.45141602 C-340.31504442 513.05115266 -340.97548781 511.6552203 -341.6484375 510.26538086 C-344.88237437 503.37765404 -347.14994916 496.15612483 -349.46923828 488.92358398 C-350.17895565 486.71410017 -350.89943725 484.50834322 -351.62109375 482.30273438 C-354.7336167 472.70694934 -357.36057492 463.06412434 -359.6875 453.25 C-359.89181641 452.41815186 -360.09613281 451.58630371 -360.30664062 450.72924805 C-365.50601899 429.50263533 -368.81348012 407.66865547 -368.890625 385.80859375 C-368.89632507 384.52807632 -368.90202515 383.2475589 -368.90789795 381.92823792 C-368.91834271 379.22111627 -368.92422491 376.51402365 -368.92773438 373.80688477 C-368.93207792 371.08734415 -368.94581988 368.36812817 -368.96875 365.64868164 C-369.1539834 343.22817098 -367.77741045 321.36508877 -363.13525391 299.39257812 C-362.62650533 296.95813021 -362.14846187 294.51830245 -361.66796875 292.078125 C-351.27426263 240.55388495 -328.81554045 190.84940691 -297.00341797 148.98339844 C-295.70223891 147.26941489 -294.41483217 145.54575712 -293.12890625 143.8203125 C-288.45160757 137.59087318 -283.52628082 131.68031199 -278.20703125 125.98046875 C-276.25885308 123.86918729 -274.37837534 121.73295724 -272.5078125 119.5546875 C-268.14148447 114.54651219 -263.45702147 109.87333457 -258.75 105.1875 C-257.89470703 104.32833984 -257.03941406 103.46917969 -256.15820312 102.58398438 C-236.23410313 82.69027966 -213.26779277 65.55732675 -188.89746094 51.52832031 C-186.98378595 50.42138237 -185.08659339 49.2930135 -183.1953125 48.1484375 C-168.84057846 39.61983024 -153.41601642 31.95509713 -137.67504883 26.35131836 C-134.78768847 25.28693309 -131.97778887 24.11264469 -129.15234375 22.89453125 C-88.62090688 5.94400397 -43.60766249 0.03095809 0 0 Z M-109.6875 34.25 C-110.54601562 34.52424805 -111.40453125 34.79849609 -112.2890625 35.08105469 C-146.97926456 46.31778035 -179.40403142 63.5958832 -208.6875 85.25 C-209.27080078 85.68022461 -209.85410156 86.11044922 -210.45507812 86.55371094 C-234.23766075 104.20463118 -256.47731512 124.85906406 -274.6875 148.25 C-275.16364746 148.85360352 -275.63979492 149.45720703 -276.13037109 150.07910156 C-301.82091208 182.68601913 -321.47648268 218.85787844 -334.6875 258.25 C-335.05214355 259.33716309 -335.41678711 260.42432617 -335.79248047 261.54443359 C-346.97825233 295.55748457 -351.90936017 330.95182261 -351.9375 366.6875 C-351.93817474 367.47525818 -351.93884949 368.26301636 -351.93954468 369.074646 C-351.82126813 457.4725471 -319.14132583 540.64224949 -259.68359375 606.03515625 C-257.89807978 608.01634298 -256.15892313 610.02570164 -254.4375 612.0625 C-249.86139829 617.42201042 -244.7131837 622.07102388 -239.45703125 626.75 C-237.63919121 628.39092754 -235.84379247 630.05713425 -234.07421875 631.75 C-215.12741152 649.75884647 -192.59529911 664.76021806 -169.6875 677.25 C-168.85476563 677.73210938 -168.02203125 678.21421875 -167.1640625 678.7109375 C-118.23039642 706.65098028 -59.32872826 720.4404512 -3.25 720.5 C-2.49548553 720.50133942 -1.74097107 720.50267883 -0.96359253 720.50405884 C14.61225764 720.4981353 29.85505933 719.2125872 45.3125 717.25 C46.21887207 717.14316895 47.12524414 717.03633789 48.05908203 716.92626953 C92.09016058 711.70427794 135.01555101 696.28209852 173.3125 674.25 C174.82775333 673.39647526 176.34336213 672.54358118 177.859375 671.69140625 C188.14012256 665.84772294 197.79739798 659.2632658 207.3125 652.25 C207.89483398 651.82219238 208.47716797 651.39438477 209.07714844 650.95361328 C215.66853818 646.08062397 221.98077005 640.91379066 228.1875 635.5625 C228.79416504 635.03986572 229.40083008 634.51723145 230.02587891 633.97875977 C233.76872683 630.71108812 237.31769091 627.30486298 240.78759766 623.74853516 C242.3125 622.25 242.3125 622.25 244.8125 620.3125 C247.6939144 617.93533312 249.94903628 615.28219121 252.3671875 612.4453125 C254.3848892 610.16830777 256.50635619 608.05784537 258.6875 605.9375 C263.65055905 601.02474222 267.98021194 595.7189775 272.3125 590.25 C273.16330242 589.20120587 274.01488808 588.15304671 274.8671875 587.10546875 C299.72043539 556.33282793 318.18635425 521.46755338 331.3125 484.25 C331.56725098 483.5394043 331.82200195 482.82880859 332.08447266 482.09667969 C333.60314171 477.84700421 335.00551018 473.56884027 336.3125 469.25 C336.54533691 468.48139648 336.77817383 467.71279297 337.01806641 466.92089844 C346.59986773 434.75742497 350.58873565 401.92006311 350.5625 368.4375 C350.56190582 367.61013336 350.56131165 366.78276672 350.56069946 365.93032837 C350.52050843 351.3267983 350.4765604 336.44264108 348.125 322 C347.99754395 321.19812256 347.87008789 320.39624512 347.73876953 319.57006836 C347.28295128 316.79299177 346.80110428 314.02149486 346.3125 311.25 C346.12059082 310.1460791 345.92868164 309.0421582 345.73095703 307.90478516 C339.77013641 274.27693281 329.75693158 240.49173655 313.43603516 210.33203125 C312.12843315 207.90890436 310.85272794 205.46984729 309.57421875 203.03125 C300.80317947 186.46501452 290.78798766 171.06503387 279.3125 156.25 C278.755625 155.51136719 278.19875 154.77273437 277.625 154.01171875 C260.50397772 131.4992207 240.57022687 110.58569919 217.99169922 93.52636719 C216.30546545 92.24465301 214.63727877 90.94243925 212.97265625 89.6328125 C205.97892756 84.14572805 198.80150182 79.04550906 191.3125 74.25 C190.71066895 73.86344238 190.10883789 73.47688477 189.48876953 73.07861328 C184.79935592 70.0758163 180.06914346 67.14494574 175.3125 64.25 C174.7158252 63.88293945 174.11915039 63.51587891 173.50439453 63.13769531 C97.64006493 16.87844161 -0.2454501 5.98073143 -109.6875 34.25 Z " fill="#050505" transform="translate(600.6875,64.75)"/>
<path d="M0 0 C0.66 0.33 1.32 0.66 2 1 C0.5484451 2.67257355 -0.91144409 4.33791758 -2.375 6 C-3.18710937 6.928125 -3.99921875 7.85625 -4.8359375 8.8125 C-5.55007813 9.534375 -6.26421875 10.25625 -7 11 C-7.66 11 -8.32 11 -9 11 C-9 11.66 -9 12.32 -9 13 C-9.66 13 -10.32 13 -11 13 C-11 13.66 -11 14.32 -11 15 C-11.66 15 -12.32 15 -13 15 C-13.33 15.66 -13.66 16.32 -14 17 C-14 14 -14 14 -12.71484375 12.37426758 C-12.12832031 11.80345459 -11.54179687 11.2326416 -10.9375 10.64453125 C-10.30585938 10.02255859 -9.67421875 9.40058594 -9.0234375 8.75976562 C-8.35570312 8.11716797 -7.68796875 7.47457031 -7 6.8125 C-6.33226562 6.15830078 -5.66453125 5.50410156 -4.9765625 4.83007812 C-3.32421559 3.21313865 -1.66528399 1.60359509 0 0 Z " fill="#191919" transform="translate(379,191)"/>
<path d="M0 0 C0 3.52032428 -0.70351351 4.4385343 -3 7 C-3.66 7 -4.32 7 -5 7 C-5.08378906 7.60199219 -5.16757812 8.20398438 -5.25390625 8.82421875 C-6.22287176 11.64994539 -7.4041551 12.29615793 -9.9375 13.8125 C-10.64777344 14.25207031 -11.35804688 14.69164062 -12.08984375 15.14453125 C-13.03537109 15.56798828 -13.03537109 15.56798828 -14 16 C-14.66 15.67 -15.32 15.34 -16 15 C-10.72 10.05 -5.44 5.1 0 0 Z " fill="#DCDCDC" transform="translate(369,168)"/>
<path d="M0 0 C0 4.30967916 -2.16725288 5.89746745 -5 9 C-5.99 9.495 -5.99 9.495 -7 10 C-7.72159424 11.64363134 -8.39351421 13.31050386 -9 15 C-10.65 14.67 -12.3 14.34 -14 14 C-9.33333333 9.33333333 -4.66666667 4.66666667 0 0 Z " fill="#DFDFDF" transform="translate(849,704)"/>
<path d="M0 0 C-1.50014467 1.50014467 -3.025332 2.97531581 -4.5625 4.4375 C-7.17685033 6.82268397 -7.17685033 6.82268397 -8 10 C-10 9 -10 9 -10.9375 7.25 C-11 5 -11 5 -8.75 2.3125 C-5.39455477 -0.5091244 -4.22613618 -1.40871206 0 0 Z " fill="#F7F7F7" transform="translate(870,690)"/>
<path d="M0 0 C0.66 0.33 1.32 0.66 2 1 C1.67 2.65 1.34 4.3 1 6 C0.01 6 -0.98 6 -2 6 C-2.33 6.66 -2.66 7.32 -3 8 C-3.99 7.34 -4.98 6.68 -6 6 C-6.99 5.67 -7.98 5.34 -9 5 C-6.06626269 3.04417512 -3.21783702 1.43775696 0 0 Z " fill="#EAEAEA" transform="translate(457,112)"/>
<path d="M0 0 C0.99 0.99 1.98 1.98 3 3 C2.01 3.61875 1.02 4.2375 0 4.875 C-0.99 5.57625 -1.98 6.2775 -3 7 C-3 7.66 -3 8.32 -3 9 C-4.95927063 10.7143618 -6.95880212 12.38405168 -9 14 C-9.66 13.67 -10.32 13.34 -11 13 C-10.06027344 11.96939453 -10.06027344 11.96939453 -9.1015625 10.91796875 C-8.28429687 10.01691406 -7.46703125 9.11585938 -6.625 8.1875 C-5.81289063 7.29417969 -5.00078125 6.40085937 -4.1640625 5.48046875 C-1.90927093 3.00367326 -1.90927093 3.00367326 0 0 Z " fill="#232323" transform="translate(875,651)"/>
<path d="M0 0 C2.4375 0.75 2.4375 0.75 5 2 C5.8125 4.125 5.8125 4.125 6 6 C5.34 6 4.68 6 4 6 C3.67 6.66 3.34 7.32 3 8 C0.9375 6.25 0.9375 6.25 -1 4 C-0.75 1.75 -0.75 1.75 0 0 Z " fill="#F0F0F0" transform="translate(786,136)"/>
<path d="M0 0 C0.66 0.33 1.32 0.66 2 1 C-2.75 5 -2.75 5 -5 5 C-5 5.66 -5 6.32 -5 7 C-6.98 7.33 -8.96 7.66 -11 8 C-11 7.34 -11 6.68 -11 6 C-9.21385682 4.96953278 -7.42089982 3.95086764 -5.625 2.9375 C-4.62726563 2.36902344 -3.62953125 1.80054687 -2.6015625 1.21484375 C-1.74304688 0.81394531 -0.88453125 0.41304688 0 0 Z " fill="#E2E2E2" transform="translate(444,118)"/>
<path d="M0 0 C0.33 0.66 0.66 1.32 1 2 C-0.84205838 4.54379491 -2.72478134 6.83312509 -5 9 C-5.99 8.34 -6.98 7.68 -8 7 C-5.36 4.69 -2.72 2.38 0 0 Z " fill="#E6E6E6" transform="translate(385,155)"/>
<path d="M0 0 C3.465 1.98 3.465 1.98 7 4 C6.01 4.99 5.02 5.98 4 7 C2.02 5.68 0.04 4.36 -2 3 C-1.34 2.01 -0.68 1.02 0 0 Z " fill="#0E0E0E" transform="translate(795,121)"/>
<path d="M0 0 C3.96 1.98 3.96 1.98 8 4 C4 6 4 6 1.25 5.125 C0.5075 4.75375 -0.235 4.3825 -1 4 C-0.67 2.68 -0.34 1.36 0 0 Z " fill="#E5E5E5" transform="translate(413,751)"/>
<path d="M0 0 C2.97 1.98 2.97 1.98 6 4 C5.67 5.32 5.34 6.64 5 8 C3.02 6.35 1.04 4.7 -1 3 C-0.67 2.01 -0.34 1.02 0 0 Z " fill="#EFEFEF" transform="translate(433,344)"/>
<path d="M0 0 C3.81377846 1.49827011 5.57365545 3.76487393 8 7 C8.66 7.66 9.32 8.32 10 9 C7 9 7 9 5.17578125 7.5390625 C4.56089844 6.90742188 3.94601562 6.27578125 3.3125 5.625 C2.68988281 4.99851563 2.06726563 4.37203125 1.42578125 3.7265625 C0 2 0 2 0 0 Z " fill="#F4F4F4" transform="translate(821,190)"/>
<path d="M0 0 C1.32 1.32 2.64 2.64 4 4 C3.01 5.485 3.01 5.485 2 7 C-0.51083114 5.74458443 -0.87125446 4.49936512 -2 2 C-1.34 1.34 -0.68 0.68 0 0 Z " fill="#111111" transform="translate(812,184)"/>
<path d="M0 0 C0.99 0.66 1.98 1.32 3 2 C2.67 2.99 2.34 3.98 2 5 C1.4225 4.814375 0.845 4.62875 0.25 4.4375 C-2.20692525 3.95976454 -3.64397534 4.24270636 -6 5 C-5.195625 4.360625 -4.39125 3.72125 -3.5625 3.0625 C-1.7249496 1.59396498 -1.7249496 1.59396498 0 0 Z " fill="#111111" transform="translate(804,719)"/>
<path d="M0 0 C0.66 0.33 1.32 0.66 2 1 C-0.475 5.455 -0.475 5.455 -3 10 C-3.66 10 -4.32 10 -5 10 C-3.66511872 6.40608886 -2.03977277 3.24509304 0 0 Z " fill="#1B1B1B" transform="translate(316,270)"/>
<path d="M0 0 C1.32 0.33 2.64 0.66 4 1 C3.01 1.495 3.01 1.495 2 2 C1.690625 2.66 1.38125 3.32 1.0625 4 C0 6 0 6 -3 7 C-1.125 2.25 -1.125 2.25 0 0 Z " fill="#151515" transform="translate(324,256)"/>
<path d="M0 0 C0.99 0.99 1.98 1.98 3 3 C2.01 3.99 1.02 4.98 0 6 C-0.66 5.67 -1.32 5.34 -2 5 C-1.125 1.125 -1.125 1.125 0 0 Z " fill="#EFEFEF" transform="translate(340,695)"/>
<path d="M0 0 C2.1875 0.3125 2.1875 0.3125 4 1 C2.68 2.32 1.36 3.64 0 5 C-0.99 4.34 -1.98 3.68 -3 3 C-1.75 1.4375 -1.75 1.4375 0 0 Z " fill="#121212" transform="translate(354,217)"/>
<path d="M0 0 C0.66 0.33 1.32 0.66 2 1 C1.67 2.32 1.34 3.64 1 5 C-0.65 5.33 -2.3 5.66 -4 6 C-1.125 1.125 -1.125 1.125 0 0 Z " fill="#DFDFDF" transform="translate(331,207)"/>
<path d="M0 0 C4.75 1.875 4.75 1.875 7 3 C6.67 3.99 6.34 4.98 6 6 C3.96166576 4.7260411 1.96147874 3.38938077 0 2 C0 1.34 0 0.68 0 0 Z " fill="#1B1B1B" transform="translate(801,144)"/>
<path d="M0 0 C0.66 0 1.32 0 2 0 C2 0.66 2 1.32 2 2 C1.34 2 0.68 2 0 2 C-0.66 3.32 -1.32 4.64 -2 6 C-2.99 6 -3.98 6 -5 6 C-3.38405168 3.95880212 -1.7143618 1.95927063 0 0 Z " fill="#E8E8E8" transform="translate(864,690)"/>
<path d="M0 0 C0.66 1.32 1.32 2.64 2 4 C1.01 4 0.02 4 -1 4 C-1 4.66 -1 5.32 -1 6 C-1.99 5.67 -2.98 5.34 -4 5 C-2.68 3.35 -1.36 1.7 0 0 Z " fill="#E0E0E0" transform="translate(860,632)"/>
<path d="M0 0 C1.65 1.65 3.3 3.3 5 5 C2 5 2 5 -1 4 C-0.67 2.68 -0.34 1.36 0 0 Z " fill="#131313" transform="translate(844,216)"/>
<path d="M0 0 C0.99 0 1.98 0 3 0 C4.6875 2.5 4.6875 2.5 6 5 C3 5 3 5 0.8125 3 C0.214375 2.34 -0.38375 1.68 -1 1 C-0.67 0.67 -0.34 0.34 0 0 Z " fill="#E2E2E2" transform="translate(828,142)"/>
</svg>
